<mxfile host="app.diagrams.net" modified="2024-04-03T22:17:15.025Z" agent="Mozilla/5.0 (Windows NT 10.0; Win64; x64) AppleWebKit/537.36 (KHTML, like Gecko) Chrome/123.0.0.0 Safari/537.36" etag="aCuncOhcT5tPRzmzEeMN" version="24.2.2" type="github">
  <diagram name="Page-1" id="fbcf5db9-b524-4cd4-e4f3-379dc89c3999">
    <mxGraphModel dx="12910" dy="1000" grid="1" gridSize="10" guides="1" tooltips="1" connect="1" arrows="1" fold="1" page="1" pageScale="1" pageWidth="850" pageHeight="1100" background="none" math="0" shadow="0">
      <root>
        <mxCell id="0" />
        <mxCell id="1" parent="0" />
        <mxCell id="ljGNXnUNUd7u9WSaNrla-1" value="" style="group;movable=0;resizable=0;rotatable=0;deletable=0;editable=0;locked=1;connectable=0;" vertex="1" connectable="0" parent="1">
          <mxGeometry x="-3934.1776710684276" y="4377.108512020794" width="5264.177671068428" height="3102.8914879792064" as="geometry" />
        </mxCell>
        <mxCell id="pPB-DNyD_1tqKT2zvJfa-695" value="" style="group;movable=0;resizable=0;rotatable=0;deletable=0;editable=0;locked=1;connectable=0;" parent="ljGNXnUNUd7u9WSaNrla-1" vertex="1" connectable="0">
          <mxGeometry x="494.17767106842757" y="972.8914879792064" width="2580.808080808081" height="2130" as="geometry" />
        </mxCell>
        <mxCell id="pPB-DNyD_1tqKT2zvJfa-509" value="" style="curved=1;endArrow=classic;html=1;rounded=0;entryX=0;entryY=0.5;entryDx=0;entryDy=0;entryPerimeter=0;strokeColor=#FF7300;strokeWidth=28;opacity=10;movable=0;resizable=0;rotatable=0;deletable=0;editable=0;locked=1;connectable=0;" parent="pPB-DNyD_1tqKT2zvJfa-695" edge="1">
          <mxGeometry width="50" height="50" relative="1" as="geometry">
            <mxPoint x="109.99878787878788" y="1850" as="sourcePoint" />
            <mxPoint x="2545.3649494949486" as="targetPoint" />
            <Array as="points">
              <mxPoint x="859.3422222222222" y="1380" />
              <mxPoint x="1871.9684848484846" y="1740" />
              <mxPoint x="2489.6705050505047" y="270" />
            </Array>
          </mxGeometry>
        </mxCell>
        <mxCell id="pPB-DNyD_1tqKT2zvJfa-511" value="" style="line;strokeWidth=10;direction=south;html=1;fillColor=none;fontSize=13;fontColor=#000000;align=center;strokeColor=#AE4132;" parent="pPB-DNyD_1tqKT2zvJfa-695" vertex="1">
          <mxGeometry x="849.22" y="30" width="10.13" height="2100" as="geometry" />
        </mxCell>
        <mxCell id="pPB-DNyD_1tqKT2zvJfa-512" value="" style="line;strokeWidth=10;direction=south;html=1;fillColor=none;fontSize=13;fontColor=#000000;align=center;strokeColor=#AE4132;" parent="pPB-DNyD_1tqKT2zvJfa-695" vertex="1">
          <mxGeometry x="99.87" y="30" width="10.13" height="2080" as="geometry" />
        </mxCell>
        <mxCell id="pPB-DNyD_1tqKT2zvJfa-513" value="" style="line;strokeWidth=10;direction=south;html=1;fillColor=none;fontSize=13;fontColor=#000000;align=center;strokeColor=#AE4132;" parent="pPB-DNyD_1tqKT2zvJfa-695" vertex="1">
          <mxGeometry x="1709.95" y="30" width="10.13" height="2090" as="geometry" />
        </mxCell>
        <mxCell id="pPB-DNyD_1tqKT2zvJfa-514" value="" style="line;strokeWidth=10;direction=south;html=1;fillColor=none;fontSize=13;fontColor=#000000;align=center;strokeColor=#AE4132;" parent="pPB-DNyD_1tqKT2zvJfa-695" vertex="1">
          <mxGeometry x="2570.681818181818" y="30" width="10.126262626262626" height="2100" as="geometry" />
        </mxCell>
        <mxCell id="pPB-DNyD_1tqKT2zvJfa-516" value="" style="ellipse;whiteSpace=wrap;html=1;fillColor=#FF7300;fontColor=#000000;strokeColor=none;gradientColor=none;dashed=1;strokeWidth=17;container=1;gradientDirection=west;opacity=20;" parent="pPB-DNyD_1tqKT2zvJfa-695" vertex="1">
          <mxGeometry y="1780" width="160" height="160" as="geometry" />
        </mxCell>
        <mxCell id="pPB-DNyD_1tqKT2zvJfa-531" value="&lt;h1 style=&quot;line-height: 60%;&quot;&gt;&lt;font style=&quot;font-size: 45px;&quot;&gt;IT SEC&lt;/font&gt;&lt;/h1&gt;&lt;p style=&quot;font-size: 15px;&quot;&gt;&lt;/p&gt;" style="rounded=0;whiteSpace=wrap;html=1;strokeColor=#FF66B3;fillColor=#FAFAFA;strokeWidth=8;align=center;fontSize=15;labelPosition=center;verticalLabelPosition=middle;verticalAlign=middle;textDirection=ltr;spacingLeft=34;gradientColor=#FAFAFA;gradientDirection=radial;" parent="ljGNXnUNUd7u9WSaNrla-1" vertex="1">
          <mxGeometry width="3781.704681872749" height="59.67511371020144" as="geometry" />
        </mxCell>
        <mxCell id="pPB-DNyD_1tqKT2zvJfa-579" value="&lt;p style=&quot;line-height: 60%; font-size: 15px;&quot;&gt;IT SEC&lt;/p&gt;&lt;p style=&quot;font-size: 15px;&quot;&gt;&lt;/p&gt;" style="rounded=0;whiteSpace=wrap;html=1;strokeColor=#CCE5FF;fillColor=#FAFAFA;strokeWidth=8;align=center;fontSize=15;labelPosition=center;verticalLabelPosition=middle;verticalAlign=middle;textDirection=ltr;spacingLeft=34;gradientColor=#FAFAFA;gradientDirection=radial;" parent="ljGNXnUNUd7u9WSaNrla-1" vertex="1">
          <mxGeometry y="96.97205977907652" width="3781.704681872749" height="59.67511371020144" as="geometry" />
        </mxCell>
        <mxCell id="pPB-DNyD_1tqKT2zvJfa-580" value="&lt;h1 style=&quot;line-height: 60%;&quot;&gt;&lt;font style=&quot;font-size: 45px;&quot;&gt;IT SEC&lt;/font&gt;&lt;/h1&gt;&lt;p style=&quot;font-size: 15px;&quot;&gt;&lt;/p&gt;" style="rounded=0;whiteSpace=wrap;html=1;strokeColor=#99FF99;fillColor=#FAFAFA;strokeWidth=8;align=center;fontSize=15;labelPosition=center;verticalLabelPosition=middle;verticalAlign=middle;textDirection=ltr;spacingLeft=34;gradientColor=#FAFAFA;gradientDirection=radial;" parent="ljGNXnUNUd7u9WSaNrla-1" vertex="1">
          <mxGeometry x="643.3373349339736" y="186.48473034437848" width="2702.016806722689" height="59.67511371020144" as="geometry" />
        </mxCell>
        <mxCell id="pPB-DNyD_1tqKT2zvJfa-581" value="&lt;h1 style=&quot;line-height: 60%;&quot;&gt;&lt;font style=&quot;font-size: 45px;&quot;&gt;IT SEC&lt;/font&gt;&lt;/h1&gt;&lt;p style=&quot;font-size: 15px;&quot;&gt;&lt;/p&gt;" style="rounded=0;whiteSpace=wrap;html=1;strokeColor=#9999FF;fillColor=#FAFAFA;strokeWidth=8;align=center;fontSize=15;labelPosition=center;verticalLabelPosition=middle;verticalAlign=middle;textDirection=ltr;spacingLeft=34;gradientColor=#FAFAFA;gradientDirection=radial;" parent="ljGNXnUNUd7u9WSaNrla-1" vertex="1">
          <mxGeometry x="643.3373349339736" y="290.91617933723137" width="2299.23169267707" height="59.67511371020144" as="geometry" />
        </mxCell>
        <mxCell id="pPB-DNyD_1tqKT2zvJfa-582" value="&lt;h1 style=&quot;line-height: 60%;&quot;&gt;&lt;font style=&quot;font-size: 45px;&quot;&gt;IT SEC&lt;/font&gt;&lt;/h1&gt;&lt;p style=&quot;font-size: 15px;&quot;&gt;&lt;/p&gt;" style="rounded=0;whiteSpace=wrap;html=1;strokeColor=#F8CECC;fillColor=#FAFAFA;strokeWidth=8;align=center;fontSize=15;labelPosition=center;verticalLabelPosition=middle;verticalAlign=middle;textDirection=ltr;spacingLeft=34;gradientColor=#FAFAFA;gradientDirection=radial;" parent="ljGNXnUNUd7u9WSaNrla-1" vertex="1">
          <mxGeometry x="643.3373349339736" y="395.34762833008426" width="1213.9495798319329" height="59.67511371020144" as="geometry" />
        </mxCell>
        <mxCell id="pPB-DNyD_1tqKT2zvJfa-585" value="&lt;h1 style=&quot;line-height: 60%;&quot;&gt;&lt;font style=&quot;font-size: 45px;&quot;&gt;IT SEC&lt;/font&gt;&lt;/h1&gt;&lt;p style=&quot;font-size: 15px;&quot;&gt;&lt;/p&gt;" style="rounded=0;whiteSpace=wrap;html=1;strokeColor=#007FFF;fillColor=#FAFAFA;strokeWidth=8;align=center;fontSize=15;labelPosition=center;verticalLabelPosition=middle;verticalAlign=middle;textDirection=ltr;spacingLeft=34;gradientColor=#FAFAFA;gradientDirection=radial;" parent="ljGNXnUNUd7u9WSaNrla-1" vertex="1">
          <mxGeometry x="654.5258103241299" y="492.3196881091608" width="1969.8989195678266" height="59.67511371020144" as="geometry" />
        </mxCell>
        <mxCell id="pPB-DNyD_1tqKT2zvJfa-584" value="&lt;h1 style=&quot;line-height: 60%;&quot;&gt;&lt;font style=&quot;font-size: 45px;&quot;&gt;IT SEC&lt;/font&gt;&lt;/h1&gt;&lt;p style=&quot;font-size: 15px;&quot;&gt;&lt;/p&gt;" style="rounded=0;whiteSpace=wrap;html=1;strokeColor=#9999FF;fillColor=#FAFAFA;strokeWidth=8;align=center;fontSize=15;labelPosition=center;verticalLabelPosition=middle;verticalAlign=middle;textDirection=ltr;spacingLeft=34;gradientColor=#FAFAFA;gradientDirection=radial;" parent="ljGNXnUNUd7u9WSaNrla-1" vertex="1">
          <mxGeometry x="1493.6614645858344" y="701.1825860948666" width="1840.5042016806717" height="59.67511371020144" as="geometry" />
        </mxCell>
        <mxCell id="pPB-DNyD_1tqKT2zvJfa-583" value="&lt;h1 style=&quot;line-height: 60%;&quot;&gt;&lt;font style=&quot;font-size: 45px;&quot;&gt;IT SEC&lt;/font&gt;&lt;/h1&gt;&lt;p style=&quot;font-size: 15px;&quot;&gt;&lt;/p&gt;" style="rounded=0;whiteSpace=wrap;html=1;strokeColor=#CC6600;fillColor=#FAFAFA;strokeWidth=8;align=center;fontSize=15;labelPosition=center;verticalLabelPosition=middle;verticalAlign=middle;textDirection=ltr;spacingLeft=34;gradientColor=#FAFAFA;gradientDirection=radial;" parent="ljGNXnUNUd7u9WSaNrla-1" vertex="1">
          <mxGeometry x="654.5258103241299" y="604.2105263157882" width="1728.6194477791114" height="59.67511371020144" as="geometry" />
        </mxCell>
        <mxCell id="pPB-DNyD_1tqKT2zvJfa-693" value="&lt;h1 style=&quot;line-height: 60%;&quot;&gt;&lt;font style=&quot;font-size: 45px;&quot;&gt;IT SEC&lt;/font&gt;&lt;/h1&gt;&lt;p style=&quot;font-size: 15px;&quot;&gt;&lt;/p&gt;" style="rounded=0;whiteSpace=wrap;html=1;strokeColor=#99FF99;fillColor=#FAFAFA;strokeWidth=8;align=center;fontSize=15;labelPosition=center;verticalLabelPosition=middle;verticalAlign=middle;textDirection=ltr;spacingLeft=34;gradientColor=#FAFAFA;gradientDirection=radial;" parent="ljGNXnUNUd7u9WSaNrla-1" vertex="1">
          <mxGeometry x="872.7010804321731" y="842.9109811565959" width="2167.375510204082" height="59.67511371020144" as="geometry" />
        </mxCell>
        <mxCell id="pPB-DNyD_1tqKT2zvJfa-692" value="&lt;h1 style=&quot;line-height: 60%;&quot;&gt;&lt;font style=&quot;font-size: 45px;&quot;&gt;IT SEC&lt;/font&gt;&lt;/h1&gt;&lt;p style=&quot;font-size: 15px;&quot;&gt;&lt;/p&gt;" style="rounded=0;whiteSpace=wrap;html=1;strokeColor=#99FF99;fillColor=#FAFAFA;strokeWidth=8;align=center;fontSize=15;labelPosition=center;verticalLabelPosition=middle;verticalAlign=middle;textDirection=ltr;spacingLeft=34;gradientColor=#FAFAFA;gradientDirection=radial;" parent="ljGNXnUNUd7u9WSaNrla-1" vertex="1">
          <mxGeometry x="648.573541416567" y="932.4236517218969" width="1935.964273709484" height="59.67511371020144" as="geometry" />
        </mxCell>
        <mxCell id="pPB-DNyD_1tqKT2zvJfa-517" value="" style="group" parent="ljGNXnUNUd7u9WSaNrla-1" vertex="1" connectable="0">
          <mxGeometry x="4447.418967587035" y="581.8323586744646" width="324.46578631452576" height="59.67511371020144" as="geometry" />
        </mxCell>
        <mxCell id="pPB-DNyD_1tqKT2zvJfa-518" value="" style="line;strokeWidth=10;direction=south;html=1;fillColor=#99CCFF;fontSize=13;align=center;strokeColor=#99CCFF;container=0;movable=1;resizable=1;rotatable=1;deletable=1;editable=1;locked=0;connectable=1;" parent="pPB-DNyD_1tqKT2zvJfa-517" vertex="1">
          <mxGeometry x="313.27731092436983" width="11.188475390156066" height="59.67511371020144" as="geometry" />
        </mxCell>
        <mxCell id="pPB-DNyD_1tqKT2zvJfa-519" value="&lt;p style=&quot;line-height: 60%; font-size: 15px;&quot;&gt;&lt;font style=&quot;font-size: 15px;&quot;&gt;&lt;span style=&quot;background-color: initial; font-size: 15px;&quot;&gt;Loem ipsum lorem ipsum&lt;/span&gt;&lt;/font&gt;&lt;/p&gt;&lt;font style=&quot;font-size: 15px;&quot;&gt;&lt;span style=&quot;background-color: initial; font-size: 15px;&quot;&gt;rem&amp;nbsp;&lt;/span&gt;&lt;/font&gt;&lt;span style=&quot;font-size: 15px;&quot;&gt;Loem ipsum lorem ipsum&lt;/span&gt;&lt;br style=&quot;font-size: 15px;&quot;&gt;&lt;p style=&quot;font-size: 15px;&quot;&gt;&lt;/p&gt;" style="rounded=0;whiteSpace=wrap;html=1;strokeColor=#99CCFF;fillColor=#FAFAFA;strokeWidth=8;align=left;fontSize=15;labelPosition=center;verticalLabelPosition=middle;verticalAlign=middle;textDirection=ltr;spacingLeft=34;" parent="pPB-DNyD_1tqKT2zvJfa-517" vertex="1">
          <mxGeometry width="290.9003601440577" height="59.67511371020144" as="geometry" />
        </mxCell>
        <mxCell id="pPB-DNyD_1tqKT2zvJfa-521" value="" style="group" parent="ljGNXnUNUd7u9WSaNrla-1" vertex="1" connectable="0">
          <mxGeometry x="4939.711884753902" y="589.2917478882382" width="324.46578631452576" height="59.67511371020144" as="geometry" />
        </mxCell>
        <mxCell id="pPB-DNyD_1tqKT2zvJfa-523" value="&lt;p style=&quot;line-height: 60%; font-size: 15px;&quot;&gt;&lt;font style=&quot;font-size: 15px;&quot;&gt;&lt;span style=&quot;background-color: initial; font-size: 15px;&quot;&gt;Loem ipsum lorem ipsum&lt;/span&gt;&lt;/font&gt;&lt;/p&gt;&lt;font style=&quot;font-size: 15px;&quot;&gt;&lt;span style=&quot;background-color: initial; font-size: 15px;&quot;&gt;rem&amp;nbsp;&lt;/span&gt;&lt;/font&gt;&lt;span style=&quot;font-size: 15px;&quot;&gt;Loem ipsum lorem ipsum&lt;/span&gt;&lt;br style=&quot;font-size: 15px;&quot;&gt;&lt;p style=&quot;font-size: 15px;&quot;&gt;&lt;/p&gt;" style="rounded=0;whiteSpace=wrap;html=1;strokeColor=#99CCFF;fillColor=#FAFAFA;strokeWidth=8;align=left;fontSize=15;labelPosition=center;verticalLabelPosition=middle;verticalAlign=middle;textDirection=ltr;spacingLeft=34;" parent="pPB-DNyD_1tqKT2zvJfa-521" vertex="1">
          <mxGeometry width="290.9003601440577" height="59.67511371020144" as="geometry" />
        </mxCell>
        <mxCell id="pPB-DNyD_1tqKT2zvJfa-522" value="" style="line;strokeWidth=10;direction=south;html=1;fillColor=#99CCFF;fontSize=13;align=center;strokeColor=#99CCFF;container=0;movable=1;resizable=1;rotatable=1;deletable=1;editable=1;locked=0;connectable=1;" parent="ljGNXnUNUd7u9WSaNrla-1" vertex="1">
          <mxGeometry x="4279.591836734695" y="671.3450292397647" width="11.188475390156063" height="537.0760233918128" as="geometry" />
        </mxCell>
      </root>
    </mxGraphModel>
  </diagram>
</mxfile>
